<mxfile host="app.diagrams.net" agent="Mozilla/5.0 (Windows NT 10.0; Win64; x64) AppleWebKit/537.36 (KHTML, like Gecko) Chrome/138.0.0.0 Safari/537.36 Edg/138.0.0.0" version="28.0.7">
  <diagram name="Page-1" id="E6o7sNMIFxf8BGr8p0NH">
    <mxGraphModel dx="1034" dy="570" grid="1" gridSize="10" guides="1" tooltips="1" connect="1" arrows="1" fold="1" page="1" pageScale="1" pageWidth="850" pageHeight="1100" math="0" shadow="0">
      <root>
        <mxCell id="0" />
        <mxCell id="1" parent="0" />
        <mxCell id="cBEMwU_DmDiUp1pyDEL3-1" value="" style="ellipse;whiteSpace=wrap;html=1;aspect=fixed;fillColor=#1A1A1A;" vertex="1" parent="1">
          <mxGeometry x="80" y="240" width="40" height="40" as="geometry" />
        </mxCell>
        <mxCell id="cBEMwU_DmDiUp1pyDEL3-3" value="" style="endArrow=none;html=1;rounded=0;" edge="1" parent="1">
          <mxGeometry width="50" height="50" relative="1" as="geometry">
            <mxPoint x="99.5" y="280" as="sourcePoint" />
            <mxPoint x="99.5" y="350" as="targetPoint" />
          </mxGeometry>
        </mxCell>
        <mxCell id="cBEMwU_DmDiUp1pyDEL3-4" value="" style="endArrow=none;html=1;rounded=0;" edge="1" parent="1">
          <mxGeometry width="50" height="50" relative="1" as="geometry">
            <mxPoint x="100" y="310" as="sourcePoint" />
            <mxPoint x="100" y="280" as="targetPoint" />
          </mxGeometry>
        </mxCell>
        <mxCell id="cBEMwU_DmDiUp1pyDEL3-5" value="" style="endArrow=none;html=1;rounded=0;" edge="1" parent="1">
          <mxGeometry width="50" height="50" relative="1" as="geometry">
            <mxPoint x="70" y="310" as="sourcePoint" />
            <mxPoint x="100" y="280" as="targetPoint" />
          </mxGeometry>
        </mxCell>
        <mxCell id="cBEMwU_DmDiUp1pyDEL3-6" value="" style="endArrow=none;html=1;rounded=0;" edge="1" parent="1">
          <mxGeometry width="50" height="50" relative="1" as="geometry">
            <mxPoint x="100" y="280" as="sourcePoint" />
            <mxPoint x="130" y="310" as="targetPoint" />
          </mxGeometry>
        </mxCell>
        <mxCell id="cBEMwU_DmDiUp1pyDEL3-7" value="" style="endArrow=none;html=1;rounded=0;" edge="1" parent="1">
          <mxGeometry width="50" height="50" relative="1" as="geometry">
            <mxPoint x="70" y="380" as="sourcePoint" />
            <mxPoint x="100" y="350" as="targetPoint" />
          </mxGeometry>
        </mxCell>
        <mxCell id="cBEMwU_DmDiUp1pyDEL3-8" value="" style="endArrow=none;html=1;rounded=0;" edge="1" parent="1">
          <mxGeometry width="50" height="50" relative="1" as="geometry">
            <mxPoint x="100" y="350" as="sourcePoint" />
            <mxPoint x="120" y="380" as="targetPoint" />
          </mxGeometry>
        </mxCell>
        <mxCell id="cBEMwU_DmDiUp1pyDEL3-9" value="" style="endArrow=classic;html=1;rounded=0;" edge="1" parent="1">
          <mxGeometry width="50" height="50" relative="1" as="geometry">
            <mxPoint x="150" y="320" as="sourcePoint" />
            <mxPoint x="260" y="270" as="targetPoint" />
          </mxGeometry>
        </mxCell>
        <mxCell id="cBEMwU_DmDiUp1pyDEL3-10" value="Available food types" style="rounded=0;whiteSpace=wrap;html=1;fillColor=#FF33FF;" vertex="1" parent="1">
          <mxGeometry x="270" y="310" width="140" height="30" as="geometry" />
        </mxCell>
        <mxCell id="cBEMwU_DmDiUp1pyDEL3-11" value="NON-VEG" style="rhombus;whiteSpace=wrap;html=1;fillColor=#FF0000;" vertex="1" parent="1">
          <mxGeometry x="300" y="400" width="80" height="80" as="geometry" />
        </mxCell>
        <mxCell id="cBEMwU_DmDiUp1pyDEL3-12" value="VEG" style="rhombus;whiteSpace=wrap;html=1;fillColor=#66CC00;" vertex="1" parent="1">
          <mxGeometry x="160" y="400" width="80" height="80" as="geometry" />
        </mxCell>
        <mxCell id="cBEMwU_DmDiUp1pyDEL3-13" value="STARTERS" style="rhombus;whiteSpace=wrap;html=1;fillColor=#FFCCCC;" vertex="1" parent="1">
          <mxGeometry x="425" y="400" width="80" height="80" as="geometry" />
        </mxCell>
        <mxCell id="cBEMwU_DmDiUp1pyDEL3-14" value="" style="endArrow=none;html=1;rounded=0;" edge="1" parent="1">
          <mxGeometry width="50" height="50" relative="1" as="geometry">
            <mxPoint x="200" y="380" as="sourcePoint" />
            <mxPoint x="470" y="380" as="targetPoint" />
          </mxGeometry>
        </mxCell>
        <mxCell id="cBEMwU_DmDiUp1pyDEL3-15" value="" style="endArrow=classic;html=1;rounded=0;" edge="1" parent="1">
          <mxGeometry width="50" height="50" relative="1" as="geometry">
            <mxPoint x="339.5" y="340" as="sourcePoint" />
            <mxPoint x="339.5" y="380" as="targetPoint" />
          </mxGeometry>
        </mxCell>
        <mxCell id="cBEMwU_DmDiUp1pyDEL3-16" value="" style="endArrow=classic;html=1;rounded=0;" edge="1" parent="1">
          <mxGeometry width="50" height="50" relative="1" as="geometry">
            <mxPoint x="199.5" y="380" as="sourcePoint" />
            <mxPoint x="199.5" y="400" as="targetPoint" />
          </mxGeometry>
        </mxCell>
        <mxCell id="cBEMwU_DmDiUp1pyDEL3-18" value="" style="endArrow=classic;html=1;rounded=0;entryX=0.5;entryY=0;entryDx=0;entryDy=0;" edge="1" parent="1" target="cBEMwU_DmDiUp1pyDEL3-11">
          <mxGeometry width="50" height="50" relative="1" as="geometry">
            <mxPoint x="339.5" y="370" as="sourcePoint" />
            <mxPoint x="339.5" y="390" as="targetPoint" />
          </mxGeometry>
        </mxCell>
        <mxCell id="cBEMwU_DmDiUp1pyDEL3-20" value="" style="endArrow=classic;html=1;rounded=0;" edge="1" parent="1">
          <mxGeometry width="50" height="50" relative="1" as="geometry">
            <mxPoint x="465" y="380" as="sourcePoint" />
            <mxPoint x="464.5" y="400" as="targetPoint" />
          </mxGeometry>
        </mxCell>
        <mxCell id="cBEMwU_DmDiUp1pyDEL3-21" value="Login/signup&amp;nbsp;&lt;div&gt;account&lt;/div&gt;" style="rounded=1;whiteSpace=wrap;html=1;fillColor=#66B2FF;" vertex="1" parent="1">
          <mxGeometry x="260" y="230" width="160" height="50" as="geometry" />
        </mxCell>
        <mxCell id="cBEMwU_DmDiUp1pyDEL3-25" value="" style="endArrow=classic;html=1;rounded=0;" edge="1" parent="1">
          <mxGeometry width="50" height="50" relative="1" as="geometry">
            <mxPoint x="339.5" y="280" as="sourcePoint" />
            <mxPoint x="339.5" y="310" as="targetPoint" />
          </mxGeometry>
        </mxCell>
        <mxCell id="cBEMwU_DmDiUp1pyDEL3-28" style="edgeStyle=orthogonalEdgeStyle;rounded=0;orthogonalLoop=1;jettySize=auto;html=1;exitX=0;exitY=0.25;exitDx=0;exitDy=0;" edge="1" parent="1" source="cBEMwU_DmDiUp1pyDEL3-26">
          <mxGeometry relative="1" as="geometry">
            <mxPoint x="270" y="518" as="targetPoint" />
          </mxGeometry>
        </mxCell>
        <mxCell id="cBEMwU_DmDiUp1pyDEL3-26" value="Select your order" style="shape=parallelogram;perimeter=parallelogramPerimeter;whiteSpace=wrap;html=1;fixedSize=1;fillColor=#FFFF00;" vertex="1" parent="1">
          <mxGeometry x="260" y="500" width="150" height="60" as="geometry" />
        </mxCell>
        <mxCell id="cBEMwU_DmDiUp1pyDEL3-29" value="Conform your&lt;div&gt;order&lt;/div&gt;" style="rounded=0;whiteSpace=wrap;html=1;fillColor=#009999;" vertex="1" parent="1">
          <mxGeometry x="250" y="600" width="170" height="50" as="geometry" />
        </mxCell>
        <mxCell id="cBEMwU_DmDiUp1pyDEL3-30" value="Bill payment&lt;div&gt;options&lt;/div&gt;" style="rounded=0;whiteSpace=wrap;html=1;fillColor=#990099;" vertex="1" parent="1">
          <mxGeometry x="250" y="680" width="170" height="50" as="geometry" />
        </mxCell>
        <mxCell id="cBEMwU_DmDiUp1pyDEL3-34" value="" style="endArrow=none;html=1;rounded=0;" edge="1" parent="1">
          <mxGeometry width="50" height="50" relative="1" as="geometry">
            <mxPoint x="420" y="720" as="sourcePoint" />
            <mxPoint x="495" y="730" as="targetPoint" />
          </mxGeometry>
        </mxCell>
        <mxCell id="cBEMwU_DmDiUp1pyDEL3-36" value="" style="endArrow=none;html=1;rounded=0;" edge="1" parent="1">
          <mxGeometry width="50" height="50" relative="1" as="geometry">
            <mxPoint x="420" y="700" as="sourcePoint" />
            <mxPoint x="480" y="680" as="targetPoint" />
          </mxGeometry>
        </mxCell>
        <mxCell id="cBEMwU_DmDiUp1pyDEL3-37" value="" style="endArrow=none;html=1;rounded=0;" edge="1" parent="1">
          <mxGeometry width="50" height="50" relative="1" as="geometry">
            <mxPoint x="420" y="710" as="sourcePoint" />
            <mxPoint x="490" y="710" as="targetPoint" />
          </mxGeometry>
        </mxCell>
        <mxCell id="cBEMwU_DmDiUp1pyDEL3-38" value="it is storing your&lt;div&gt;detials&lt;/div&gt;" style="shape=cylinder3;whiteSpace=wrap;html=1;boundedLbl=1;backgroundOutline=1;size=15;fillColor=#999999;" vertex="1" parent="1">
          <mxGeometry x="670" y="270" width="90" height="80" as="geometry" />
        </mxCell>
        <mxCell id="cBEMwU_DmDiUp1pyDEL3-39" value="" style="endArrow=none;html=1;rounded=0;exitX=1;exitY=0.5;exitDx=0;exitDy=0;" edge="1" parent="1" source="cBEMwU_DmDiUp1pyDEL3-21">
          <mxGeometry width="50" height="50" relative="1" as="geometry">
            <mxPoint x="430" y="255" as="sourcePoint" />
            <mxPoint x="610" y="255" as="targetPoint" />
          </mxGeometry>
        </mxCell>
        <mxCell id="cBEMwU_DmDiUp1pyDEL3-40" value="" style="endArrow=none;html=1;rounded=0;" edge="1" parent="1">
          <mxGeometry width="50" height="50" relative="1" as="geometry">
            <mxPoint x="610" y="260" as="sourcePoint" />
            <mxPoint x="610" y="300" as="targetPoint" />
          </mxGeometry>
        </mxCell>
        <mxCell id="cBEMwU_DmDiUp1pyDEL3-41" value="" style="endArrow=classic;html=1;rounded=0;" edge="1" parent="1">
          <mxGeometry width="50" height="50" relative="1" as="geometry">
            <mxPoint x="610" y="300" as="sourcePoint" />
            <mxPoint x="670" y="300" as="targetPoint" />
          </mxGeometry>
        </mxCell>
        <mxCell id="cBEMwU_DmDiUp1pyDEL3-43" value="Credit card" style="rounded=1;whiteSpace=wrap;html=1;fillColor=#FFB366;" vertex="1" parent="1">
          <mxGeometry x="490" y="700" width="120" height="20" as="geometry" />
        </mxCell>
        <mxCell id="cBEMwU_DmDiUp1pyDEL3-44" value="Cash on delivery" style="rounded=1;whiteSpace=wrap;html=1;fillColor=#FFCCCC;" vertex="1" parent="1">
          <mxGeometry x="490" y="730" width="120" height="20" as="geometry" />
        </mxCell>
        <mxCell id="cBEMwU_DmDiUp1pyDEL3-45" value="" style="endArrow=classic;html=1;rounded=0;" edge="1" parent="1">
          <mxGeometry width="50" height="50" relative="1" as="geometry">
            <mxPoint x="339.5" y="470" as="sourcePoint" />
            <mxPoint x="339.5" y="500" as="targetPoint" />
          </mxGeometry>
        </mxCell>
        <mxCell id="cBEMwU_DmDiUp1pyDEL3-46" value="" style="endArrow=classic;html=1;rounded=0;" edge="1" parent="1">
          <mxGeometry width="50" height="50" relative="1" as="geometry">
            <mxPoint x="339.5" y="560" as="sourcePoint" />
            <mxPoint x="339.5" y="600" as="targetPoint" />
          </mxGeometry>
        </mxCell>
        <mxCell id="cBEMwU_DmDiUp1pyDEL3-47" value="" style="endArrow=classic;html=1;rounded=0;" edge="1" parent="1">
          <mxGeometry width="50" height="50" relative="1" as="geometry">
            <mxPoint x="334.5" y="640" as="sourcePoint" />
            <mxPoint x="334.5" y="680" as="targetPoint" />
          </mxGeometry>
        </mxCell>
        <mxCell id="cBEMwU_DmDiUp1pyDEL3-48" value="&lt;font size=&quot;3&quot;&gt;USER&lt;/font&gt;" style="text;strokeColor=none;align=center;fillColor=none;html=1;verticalAlign=middle;whiteSpace=wrap;rounded=0;" vertex="1" parent="1">
          <mxGeometry x="70" y="390" width="60" height="30" as="geometry" />
        </mxCell>
        <mxCell id="cBEMwU_DmDiUp1pyDEL3-49" value="Phone pay/google pay" style="rounded=1;whiteSpace=wrap;html=1;fillColor=#CCFFFF;" vertex="1" parent="1">
          <mxGeometry x="480" y="670" width="120" height="20" as="geometry" />
        </mxCell>
        <mxCell id="cBEMwU_DmDiUp1pyDEL3-52" value="" style="endArrow=classic;html=1;rounded=0;" edge="1" parent="1">
          <mxGeometry width="50" height="50" relative="1" as="geometry">
            <mxPoint x="339.5" y="720" as="sourcePoint" />
            <mxPoint x="339.5" y="760" as="targetPoint" />
          </mxGeometry>
        </mxCell>
        <mxCell id="cBEMwU_DmDiUp1pyDEL3-53" value="FEEDBACK" style="rounded=0;whiteSpace=wrap;html=1;fillColor=#CC6600;" vertex="1" parent="1">
          <mxGeometry x="270" y="760" width="140" height="60" as="geometry" />
        </mxCell>
        <mxCell id="cBEMwU_DmDiUp1pyDEL3-55" value="&lt;font size=&quot;3&quot;&gt;HOME FOOD DELIVERY APP&lt;/font&gt;" style="text;strokeColor=none;align=center;fillColor=none;html=1;verticalAlign=middle;whiteSpace=wrap;rounded=0;" vertex="1" parent="1">
          <mxGeometry x="305" y="170" width="60" height="30" as="geometry" />
        </mxCell>
      </root>
    </mxGraphModel>
  </diagram>
</mxfile>
